<svg width="32" height="32" viewBox="0 0 32 32" fill="none" xmlns="http://www.w3.org/2000/svg">
<rect width="32" height="32" fill="black"/>
<path d="M12.6071 12H12.9534C14.2868 12.0768 15.333 12.4748 15.996 13.2954C16.6689 12.472 17.715 12.0714 19.0558 12H19.3874C22.3612 12.225 23.7168 14.6072 26.0914 15.6199C26.4604 15.8078 26.8623 15.9016 27.2677 15.8943C27.8767 15.8202 28.2647 15.1314 28.1862 14.363C28.1027 13.5396 27.3807 12.8233 26.5752 13.2185C26.4693 13.2735 26.3722 13.3477 26.2879 13.4381C26.2265 13.5012 26.1577 13.6659 26.0006 13.6055C25.8532 13.4683 26.0006 13.2679 26.0767 13.1527C26.2221 12.8637 26.4422 12.6305 26.7082 12.4836C26.9741 12.3367 27.2736 12.2829 27.5673 12.3293C28.9499 12.4391 30.1876 13.7949 29.9764 15.8477C29.5049 18.9022 27.005 19.7256 24.0409 20H23.0758C20.489 19.8828 18.0077 18.8225 16.0108 16.9811C13.998 18.8159 11.5087 19.8748 8.91375 20H7.96584C4.9797 19.7063 2.45523 18.9022 2.01565 15.7571C1.84867 13.5177 3.04214 12.4172 4.42716 12.3046C4.72329 12.2583 5.02504 12.312 5.29369 12.4587C5.56235 12.6054 5.78566 12.8384 5.93497 13.128C6.00373 13.2542 6.13142 13.4491 6.01109 13.6C5.8613 13.6302 5.78763 13.4985 5.72378 13.4326C5.634 13.328 5.52658 13.2444 5.40772 13.1864C5.28887 13.1285 5.16092 13.0974 5.03127 13.095C4.08336 13.0566 3.53819 14.234 3.91637 15.1835C3.99032 15.3679 4.10512 15.5282 4.24993 15.6492C4.39474 15.7703 4.56477 15.848 4.74395 15.8751C5.14898 15.8774 5.54985 15.7839 5.92023 15.6007C6.25046 15.4593 6.56855 15.2848 6.87059 15.0792C8.67554 13.9101 10.0876 12.2497 12.6071 12V12Z" fill="white"/>
</svg>
