<svg width="132" height="69" viewBox="0 0 132 69" fill="none" xmlns="http://www.w3.org/2000/svg">
<g clip-path="url(#clip0_84_33)">
<path d="M12.0523 0.257888C6.50738 0.745188 1.83838 1.8507 0.575275 2.9303C-0.147425 3.5465 -0.147425 3.5465 0.342875 4.0865C0.987375 4.8062 4.05628 5.73148 7.59048 6.32278C11.5885 6.99078 20.1003 7.0162 21.3136 6.3741C22.5255 5.7061 22.9376 4.96045 22.9376 3.39265C22.9376 1.77395 22.3185 0.976664 20.7198 0.540164C19.274 0.154263 14.9415 -1.19209e-05 12.0523 0.257888Z" fill="#363636"/>
<path d="M25.7373 0.488258C25.6079 0.771454 25.479 2.59617 25.479 4.60007C25.479 8.66107 25.6343 8.37838 23.2871 8.53318L22.2563 8.61028L22.1269 11.1547L21.998 13.6986L20.8115 13.9818C18.2324 14.6498 16.8125 16.577 17.02 19.2762C17.1479 21.2034 18.0508 22.617 19.5986 23.3631C20.7075 23.8763 21.0683 23.9012 30.8447 23.9012C36.3896 23.9012 40.9819 23.9798 41.0332 24.0819C41.084 24.2103 39.9238 33.4891 38.4536 44.7206C37.0088 55.9511 35.7705 65.7177 35.7451 66.3866C35.6938 68.0038 36.5713 69.0077 38.0928 69.0077C39.3301 69.0077 40.1045 68.3661 40.4141 67.1063C40.5435 66.5926 41.9097 56.7733 43.4322 45.285C44.9542 33.8221 46.295 24.4163 46.3726 24.4163C46.4756 24.4163 47.4556 25.8294 48.565 27.552C51.5049 32.178 50.9639 31.8689 56.2003 31.8689H60.5587V34.6711V37.4987L55.4259 37.5758C50.7057 37.6529 50.2159 37.7028 49.5446 38.191C47.9718 39.3482 47.9196 39.606 47.9196 49.1676C47.9196 58.7018 47.946 58.9596 49.4421 60.2174L50.2932 60.9127H65.9758H81.6584L82.509 60.2174C84.0051 58.9596 84.0295 58.7018 84.0295 49.1676C84.0295 39.6061 83.9787 39.3483 82.4065 38.191C81.7356 37.7027 81.2454 37.6529 76.5247 37.5758L71.3929 37.4987V34.6711V31.8689H75.7523C80.9867 31.8689 80.4457 32.178 83.3861 27.552C84.4965 25.8293 85.4759 24.4163 85.5795 24.4163C85.6557 24.4163 86.9984 33.8221 88.519 45.285C90.0415 56.7733 91.4086 66.5926 91.5376 67.1063C91.8472 68.3661 92.6196 69.0077 93.8589 69.0077C95.3804 69.0077 96.2583 68.0038 96.2056 66.3866C96.1802 65.7177 94.9419 55.9511 93.4966 44.7206C92.0278 33.4892 90.8657 24.2103 90.9185 24.0819C90.9693 23.9798 95.5601 23.9012 101.108 23.9012C110.883 23.9012 111.244 23.8763 112.352 23.3631C113.9 22.617 114.802 21.2034 114.931 19.2762C115.138 16.577 113.72 14.6497 111.14 13.9818L109.953 13.6986L109.826 11.1547L109.697 8.61028L108.665 8.53318C106.318 8.37838 106.471 8.66107 106.471 4.60007C106.471 2.59617 106.343 0.771454 106.214 0.488258C106.008 0.128357 105.671 -2.28882e-05 104.847 -2.28882e-05C104.228 -2.28882e-05 103.609 0.128365 103.427 0.308571C103.221 0.514168 103.118 1.7739 103.118 4.2407C103.118 6.708 103.015 7.96778 102.808 8.17278C102.628 8.35248 101.907 8.48088 101.159 8.48088C99.5327 8.48088 99.5073 8.53308 99.5073 11.5913V13.8784H65.9756H32.4434V11.5913C32.4434 8.53318 32.4185 8.48088 30.7935 8.48088C30.045 8.48088 29.3233 8.35248 29.1431 8.17278C28.9356 7.96768 28.833 6.708 28.833 4.2407C28.833 1.7739 28.73 0.514069 28.5234 0.308571C28.3427 0.128365 27.7231 -2.28882e-05 27.1045 -2.28882e-05C26.2798 -2.28882e-05 25.9443 0.128456 25.7373 0.488258ZM68.5801 40.6084C71.4688 41.5068 73.9717 44.001 74.7461 46.7764C75.1846 48.3194 75.0557 50.9922 74.4619 52.5596C73.7656 54.4346 71.7773 56.5694 69.8965 57.4951C68.6065 58.1367 68.1426 58.2139 65.9756 58.2139C63.8091 58.2139 63.3447 58.1368 62.0552 57.4951C60.1709 56.5693 58.1861 54.4346 57.4893 52.5596C56.8965 50.9922 56.7666 48.3194 57.2056 46.7764C57.9536 44.0528 60.4551 41.5069 63.2671 40.6084C65.2793 39.9659 66.5674 39.9659 68.5801 40.6084Z" fill="#363636"/>
<path d="M63.7941 44.4375C61.7575 45.3633 60.2873 48.0869 60.7253 50.168C61.4992 53.8448 65.5485 55.7207 68.7209 53.8701C70.7063 52.7119 71.7121 50.3232 71.1721 48.0869C70.6037 45.6963 68.4377 43.9492 66.0129 43.9492C65.3674 43.9493 64.3874 44.1807 63.7941 44.4375Z" fill="#363636"/>
<path d="M36.0918 0.154258C32.1714 0.822258 31.5786 1.28516 31.5786 3.59806C31.5786 5.42276 32.0425 6.01407 33.8467 6.55367C35.3965 7.01607 41.0191 7.06784 44.3467 6.68204C51.2075 5.85974 55.6685 4.13764 54.0454 2.93004C52.7803 2.03014 49.1431 1.05355 44.9912 0.539951C42.5156 0.231951 36.9951 -4.19617e-05 36.0918 0.154258Z" fill="#363636"/>
<path d="M89.4844 0.257861C83.1651 0.848161 77.6201 2.33895 77.6201 3.44385C77.6201 5.16605 85.4609 6.91355 93.25 6.93945C99.0537 6.93945 100.446 6.29734 100.446 3.59814C100.446 1.77394 99.8272 0.97656 98.0733 0.51416C96.4238 0.10256 92.3984 -3.86238e-05 89.4844 0.257861Z" fill="#363636"/>
<path d="M112.777 0.283252C110.996 0.514252 109.758 1.05377 109.346 1.77397C108.959 2.54447 109.036 4.67775 109.5 5.34575C110.428 6.65675 111.152 6.81104 116.569 6.81104C120.23 6.81104 122.37 6.68215 124.435 6.32275C127.969 5.73145 131.038 4.80617 131.683 4.08647C132.173 3.54647 132.173 3.54647 131.45 2.93027C130.11 1.79937 125.492 0.745161 119.534 0.257861C116.053 -0.0253386 115.046 -0.0253482 112.777 0.283252Z" fill="#363636"/>
</g>
<defs>
<clipPath id="clip0_84_33">
<rect width="132" height="69" fill="white"/>
</clipPath>
</defs>
</svg>
